<?xml version="1.0" standalone="no"?>
<!DOCTYPE svg PUBLIC "-//W3C//DTD SVG 20010904//EN"
 "http://www.w3.org/TR/2001/REC-SVG-20010904/DTD/svg10.dtd">
<svg version="1.0" xmlns="http://www.w3.org/2000/svg"
 width="450.000000pt" height="450.000000pt" viewBox="0 0 450.000000 450.000000"
 preserveAspectRatio="xMidYMid meet">
<metadata>
Created by potrace 1.14, written by Peter Selinger 2001-2017
</metadata>
<g transform="translate(0.000000,450.000000) scale(0.100000,-0.100000)"
fill="#000000" stroke="none">
<path d="M1854 4302 c-177 -62 -351 -208 -373 -314 -7 -31 -3 -38 70 -110 42
-42 90 -98 108 -124 l31 -47 -58 -23 c-64 -26 -112 -72 -112 -108 0 -13 9 -35
20 -49 23 -29 126 -83 176 -93 19 -3 34 -12 34 -19 0 -7 -53 -183 -119 -391
-126 -403 -126 -403 -177 -369 -20 13 -25 23 -21 43 3 15 -1 46 -9 70 -8 23
-12 47 -8 53 19 31 22 85 7 116 -11 23 -14 53 -11 97 3 54 11 76 58 157 44 77
55 104 58 151 4 56 3 59 -36 98 -34 34 -46 40 -83 40 -91 0 -137 -58 -145
-183 -3 -40 -8 -83 -11 -97 l-6 -25 -7 25 c-5 14 -8 41 -9 61 -1 50 -47 136
-82 154 -32 17 -102 20 -130 5 -59 -32 -63 -136 -10 -222 21 -33 29 -54 21
-56 -22 -8 -50 -46 -56 -78 -4 -20 -14 -36 -24 -39 -22 -7 -44 -40 -54 -78 -9
-38 25 -113 61 -133 43 -25 67 -62 53 -79 -32 -39 30 -126 103 -146 49 -13 50
-13 113 -61 57 -44 140 -78 190 -78 29 0 34 -3 30 -17 -3 -10 -52 -169 -110
-354 -124 -398 -133 -438 -116 -508 22 -92 49 -112 235 -176 61 -21 111 -39
113 -40 11 -8 91 -260 84 -267 -5 -5 -29 11 -55 37 -51 52 -65 53 -122 9 -103
-78 -146 -264 -96 -423 l19 -60 -25 -23 c-33 -31 -81 -133 -88 -189 -9 -59 9
-123 41 -148 54 -43 199 -37 342 13 52 18 103 26 189 32 65 3 126 11 136 16
22 11 23 67 1 153 -16 62 -16 65 5 91 12 15 21 31 21 35 0 5 -16 26 -35 48
-19 21 -35 41 -35 45 0 3 24 -3 53 -14 126 -48 166 -13 288 248 32 68 60 126
63 129 3 3 56 6 119 7 107 1 116 3 182 35 75 37 149 105 189 174 27 47 69 160
115 312 114 379 122 399 139 381 12 -11 18 -39 20 -91 4 -74 4 -75 -28 -102
-58 -49 -71 -111 -32 -156 12 -13 13 -22 5 -40 -22 -45 -23 -60 -2 -105 16
-38 19 -58 14 -103 -6 -54 -6 -57 26 -83 26 -22 40 -27 66 -23 31 5 33 4 33
-21 0 -15 -7 -70 -16 -122 -64 -406 -74 -734 -24 -864 13 -34 45 -49 88 -41
47 9 111 42 119 61 3 8 -2 39 -11 68 -24 77 -45 270 -45 416 -1 145 22 395 41
460 14 44 14 45 55 42 34 -3 47 2 77 28 20 18 36 41 36 52 0 10 5 28 11 39 14
27 15 117 1 131 -7 7 -12 21 -12 31 0 35 -32 87 -56 93 -31 8 -46 36 -38 69
10 42 -13 82 -62 106 l-44 21 6 53 c9 74 -21 166 -95 289 -48 81 -57 104 -51
125 4 14 50 159 103 321 138 425 161 511 154 577 -6 54 -61 171 -113 241 -57
74 -253 149 -734 282 -188 52 -196 55 -191 76 2 10 4 56 5 101 1 97 -19 136
-73 141 -27 3 -40 -4 -78 -42 -25 -25 -49 -44 -53 -41 -28 18 -80 208 -80 296
0 44 -12 49 -115 49 -51 0 -92 -8 -151 -28z m351 -450 c-72 -135 -295 -252
-430 -224 -32 6 -41 13 -43 32 -3 24 -1 25 65 25 127 0 242 63 338 183 l49 62
20 -20 c20 -20 20 -20 1 -58z m280 -123 c364 -97 665 -195 737 -241 80 -50
187 -243 174 -312 -15 -75 -239 -802 -252 -815 -2 -2 -13 8 -25 22 -11 15 -29
27 -39 27 -30 0 -81 -50 -106 -105 -22 -46 -24 -63 -24 -200 1 -118 4 -161 19
-202 l18 -52 -64 -213 c-72 -241 -105 -318 -166 -380 -76 -77 -226 -138 -306
-123 -88 16 -535 155 -894 278 -239 83 -280 105 -298 167 -16 52 1 134 76 365
31 94 139 438 241 765 102 327 191 600 198 606 11 11 106 30 106 21 0 -3 -18
-60 -40 -128 -22 -68 -51 -162 -66 -209 -97 -315 -92 -285 -55 -319 17 -16 47
-33 68 -39 21 -6 97 -31 168 -55 121 -42 340 -113 530 -172 44 -14 109 -34
144 -45 76 -23 148 -26 177 -6 29 21 72 126 139 341 15 50 36 115 45 145 18
57 63 210 100 339 27 95 40 173 33 200 -3 12 -22 30 -42 40 -36 18 -301 104
-481 156 -52 15 -130 38 -173 51 -43 13 -85 24 -93 24 -20 0 -18 15 11 61 18
28 31 39 43 35 9 -3 53 -15 97 -27z m-61 -214 c219 -62 309 -89 421 -127 55
-18 105 -32 112 -32 22 3 32 -124 12 -151 -4 -5 -12 -30 -19 -55 -45 -173
-176 -580 -199 -617 -27 -43 -70 -50 -163 -28 -40 10 -95 26 -123 35 -27 10
-170 57 -316 105 -260 84 -309 107 -309 143 0 9 34 123 75 252 126 400 112
367 173 407 29 20 74 55 100 79 33 30 53 41 66 37 11 -3 87 -25 170 -48z
m-989 -91 c22 -9 45 -56 45 -93 0 -16 -24 -77 -54 -136 -32 -63 -57 -126 -61
-155 -4 -28 -11 -50 -16 -50 -12 0 -48 40 -55 62 -7 23 -55 48 -92 48 -61 0
-116 -96 -93 -163 15 -41 1 -56 -35 -36 -64 34 -86 138 -39 184 27 28 33 29
69 15 14 -5 32 -7 40 -4 11 4 -3 23 -49 67 -78 76 -98 127 -72 182 28 59 102
60 137 2 11 -17 27 -66 36 -107 40 -185 69 -181 98 15 15 97 34 147 63 164 21
12 54 14 78 5z m-182 -384 c14 -11 28 -29 32 -39 3 -10 28 -31 56 -46 l51 -28
-5 -50 c-9 -74 -36 -118 -91 -148 -41 -22 -45 -27 -27 -32 12 -3 41 5 66 18
l45 22 0 -28 c0 -23 -9 -35 -42 -56 -37 -25 -51 -28 -122 -28 -93 0 -144 22
-160 68 -13 37 -6 40 39 17 40 -20 111 -28 100 -11 -3 5 -18 12 -34 16 -16 3
-51 20 -77 37 l-49 31 32 9 c22 6 35 16 39 32 7 31 39 39 75 20 30 -15 99 -19
99 -6 0 5 -18 14 -39 21 -49 14 -101 71 -101 111 0 33 44 90 70 90 9 0 29 -9
43 -20z m-269 -87 c8 -16 33 -45 56 -66 35 -31 40 -40 30 -52 -20 -24 -56 -18
-94 15 -38 34 -53 78 -36 109 15 28 27 26 44 -6z m464 -340 c47 -18 49 -27 23
-95 -9 -24 -16 -28 -48 -28 -21 0 -64 12 -96 28 l-59 27 64 42 c35 24 65 43
68 43 2 0 24 -8 48 -17z m1695 -338 c26 -38 68 -110 93 -159 43 -87 45 -92 42
-170 l-3 -79 -57 -12 -58 -11 0 52 c0 94 -8 112 -93 201 l-79 85 6 46 c3 26
18 64 32 85 36 55 58 48 117 -38z m197 -470 c17 -9 30 -22 30 -30 0 -8 1 -18
3 -21 1 -3 -22 -7 -50 -8 -35 -1 -59 -7 -70 -19 -16 -16 -14 -17 40 -17 78 0
97 -19 97 -97 0 -78 -16 -131 -50 -165 -35 -34 -55 -35 -76 -3 -14 22 -14 30
-1 82 17 68 10 97 -25 101 -39 5 -78 -47 -78 -103 0 -35 5 -48 29 -68 26 -22
28 -28 22 -64 -10 -54 -18 -63 -51 -63 -38 0 -54 29 -44 79 9 45 6 70 -12 98
-30 47 -7 115 56 162 44 32 24 53 -20 21 -29 -21 -33 -21 -48 -7 -21 21 -5 56
40 90 63 47 153 61 208 32z m138 -255 c-5 -52 -52 -133 -81 -138 -22 -5 -22
12 3 64 12 23 23 60 26 81 9 63 11 65 35 52 18 -9 21 -18 17 -59z m28 -94 c-8
-32 -54 -86 -73 -86 -11 0 -10 6 7 28 12 15 30 42 42 60 23 37 34 36 24 -2z
m-50 -121 c-22 -17 -36 -18 -63 -8 -16 7 7 14 72 21 6 1 1 -5 -9 -13z m-1697
-120 c98 -64 100 -66 110 -115 15 -68 25 -160 18 -160 -3 0 -30 9 -60 21 -52
20 -56 24 -66 65 -8 31 -19 48 -35 55 -18 9 -28 28 -44 87 -11 43 -24 85 -27
95 -4 9 -4 17 -1 17 4 0 51 -29 105 -65z m245 -5 c45 -15 51 -20 54 -48 5 -53
-15 -170 -35 -196 -17 -24 -68 -44 -80 -32 -4 4 -52 274 -53 299 0 10 43 1
114 -23z m167 -197 c67 -52 67 -49 12 -146 -52 -93 -81 -127 -107 -127 -19 0
-265 79 -328 105 -19 8 -34 66 -23 85 8 14 27 11 144 -20 109 -29 149 -20 185
43 13 23 27 57 31 75 4 17 11 32 17 32 5 0 36 -21 69 -47z m-341 -242 c47 -17
76 -34 78 -44 3 -14 -4 -13 -50 7 -29 13 -70 26 -90 30 -27 5 -36 11 -31 21 7
19 4 19 93 -14z"/>
<path d="M3239 3416 c18 -47 12 -136 -18 -256 -29 -116 -85 -314 -101 -354
-28 -71 -71 -218 -67 -228 3 -12 73 196 140 422 14 47 35 117 47 155 12 39 24
111 27 160 5 83 4 91 -16 110 l-22 19 10 -28z"/>
<path d="M1660 2591 c0 -6 4 -13 10 -16 6 -3 7 1 4 9 -7 18 -14 21 -14 7z"/>
<path d="M1737 2549 c7 -7 15 -10 18 -7 3 3 -2 9 -12 12 -14 6 -15 5 -6 -5z"/>
<path d="M1899 2551 c8 -5 10 -14 6 -21 -5 -9 -4 -11 3 -6 18 11 14 36 -5 36
-14 0 -15 -2 -4 -9z"/>
<path d="M1960 2536 c0 -2 7 -7 16 -10 8 -3 12 -2 9 4 -6 10 -25 14 -25 6z"/>
<path d="M2010 2493 c0 -21 3 -24 9 -14 5 8 7 20 4 28 -8 21 -13 15 -13 -14z"/>
<path d="M1701 2398 c-5 -13 -12 -36 -16 -52 -5 -26 -9 -28 -38 -22 -66 12
-71 11 -83 -14 -7 -14 -14 -43 -16 -65 -3 -38 -2 -39 35 -48 42 -10 41 -2 20
-100 -5 -24 -1 -29 32 -43 20 -8 51 -14 69 -12 26 3 35 10 54 51 18 38 27 47
40 42 58 -22 69 -19 87 28 22 59 17 77 -25 91 -37 12 -37 14 -27 83 6 37 4 44
-15 57 -13 7 -42 16 -66 20 -38 6 -43 4 -51 -16z"/>
<path d="M2882 2079 c-43 -146 -58 -196 -125 -409 -31 -96 -58 -188 -61 -205
l-6 -30 14 30 c8 17 29 77 46 135 18 58 41 130 50 160 10 30 30 96 45 145 15
50 38 125 52 167 13 43 23 87 21 100 -2 12 -18 -29 -36 -93z"/>
<path d="M2507 2120 c-63 -50 -52 -146 19 -176 72 -30 144 18 144 98 0 82 -98
129 -163 78z m94 -20 c19 -11 26 -30 10 -30 -5 0 -19 9 -32 20 -26 21 -11 27
22 10z"/>
<path d="M2270 2057 c-14 -7 -33 -29 -43 -50 -42 -85 36 -167 129 -137 21 7
40 23 49 40 51 99 -38 196 -135 147z m99 -41 c19 -22 -1 -25 -34 -5 l-30 19
26 0 c15 0 32 -6 38 -14z"/>
<path d="M1835 1790 c-14 -6 -6 -7 23 -3 33 4 42 2 42 -9 0 -10 -26 -21 -81
-35 l-81 -21 -7 21 c-6 15 -10 17 -16 8 -4 -7 -1 -19 6 -26 12 -11 28 -10 98
5 89 20 107 30 98 54 -7 17 -49 20 -82 6z"/>
<path d="M1748 1763 c7 -3 16 -2 19 1 4 3 -2 6 -13 5 -11 0 -14 -3 -6 -6z"/>
<path d="M2090 1739 c-24 -8 -24 -8 5 -6 20 1 30 -3 30 -12 0 -9 -24 -21 -65
-33 -78 -22 -100 -23 -100 -4 0 8 8 17 18 19 14 4 14 5 1 6 -25 2 -44 -26 -30
-42 9 -12 26 -10 103 7 92 22 110 34 88 61 -14 17 -14 17 -50 4z"/>
<path d="M2510 1615 c0 -34 55 -195 67 -195 7 0 11 6 9 13 -3 6 -17 54 -32
105 -25 83 -44 117 -44 77z"/>
<path d="M2405 1588 c2 -7 16 -53 30 -103 28 -98 52 -138 42 -70 -10 66 -51
185 -64 185 -7 0 -10 -6 -8 -12z"/>
<path d="M2307 1563 c-6 -11 56 -213 65 -213 14 0 9 32 -19 127 -26 87 -35
104 -46 86z"/>
<path d="M2200 1536 c0 -3 11 -40 24 -83 13 -43 27 -90 30 -105 8 -34 26 -37
26 -5 -1 36 -54 190 -68 195 -6 2 -12 1 -12 -2z"/>
<path d="M2620 1319 c-40 -34 -162 -95 -218 -108 l-37 -9 47 -1 c78 -2 205 68
239 130 13 25 10 24 -31 -12z"/>
<path d="M2172 3469 c-86 -34 -139 -134 -122 -228 6 -34 4 -41 -8 -41 -12 0
-11 -5 6 -23 36 -39 29 -61 -25 -78 -64 -19 -87 -60 -79 -139 11 -114 58 -194
121 -206 17 -3 59 2 92 10 34 9 79 16 101 16 34 0 45 -6 70 -36 104 -126 271
-157 384 -71 54 41 90 109 86 161 -3 39 -4 40 -75 69 -54 22 -73 34 -73 48 0
25 26 37 96 45 42 5 53 9 39 15 -33 13 -114 10 -150 -5 -29 -13 -35 -20 -35
-46 0 -37 25 -60 88 -80 39 -12 48 -20 50 -41 6 -51 -57 -79 -91 -41 -8 9 -27
43 -40 74 -25 56 -62 88 -102 88 -11 0 -14 6 -9 24 7 31 -19 56 -59 56 -29 -1
-30 -2 -12 -12 34 -18 45 -38 34 -60 -8 -16 -16 -18 -42 -12 -18 4 -52 7 -75
5 -52 -2 -108 14 -116 34 -9 26 3 41 52 63 44 20 92 72 92 100 0 17 -2 16 -53
-33 -26 -25 -55 -45 -64 -45 -9 0 4 13 29 29 49 31 98 112 98 162 0 14 7 33
16 40 19 16 15 89 -7 115 -11 14 -13 14 -22 -1 -8 -15 -12 -14 -36 8 -50 47
-103 59 -159 36z m92 -38 c41 -16 76 -78 76 -136 0 -69 -41 -151 -85 -172 -47
-23 -96 -11 -134 32 -37 43 -45 70 -39 140 9 107 93 169 182 136z m-108 -336
c16 -8 40 -15 54 -16 15 0 19 -3 10 -6 -8 -3 -23 -12 -32 -20 -15 -13 -18 -12
-28 6 -6 12 -20 21 -30 21 -20 0 -26 11 -13 23 8 9 6 9 39 -8z m-92 -52 c-4
-16 -9 -31 -11 -35 -8 -15 -32 -8 -43 13 -14 26 3 49 36 49 21 0 24 -3 18 -27z
m88 -20 c26 -23 22 -36 -6 -18 -23 15 -25 14 -44 -10 -28 -35 -35 -31 -15 10
18 38 37 44 65 18z m556 -305 c-3 -7 -22 -23 -44 -35 -46 -27 -127 -31 -178
-9 -54 22 -50 35 5 19 59 -18 121 -11 164 17 35 22 58 25 53 8z"/>
<path d="M2476 3434 c-9 -8 -16 -23 -16 -31 0 -14 2 -14 18 0 10 10 31 17 45
17 33 0 36 15 5 24 -32 8 -35 8 -52 -10z"/>
<path d="M2503 3364 c-50 -50 -9 -123 87 -150 30 -9 79 -23 108 -31 45 -12 59
-22 89 -64 19 -27 39 -46 44 -43 15 9 10 122 -6 155 -22 42 -71 69 -125 69
-59 1 -119 15 -137 33 -12 12 -13 19 -4 36 10 18 9 21 -9 21 -12 0 -32 -12
-47 -26z"/>
<path d="M2514 3195 c-4 -8 -12 -15 -20 -15 -8 0 -14 -6 -14 -13 0 -20 40 -54
90 -75 51 -22 150 -36 150 -22 0 6 -6 10 -14 10 -23 0 -159 58 -168 72 -5 7
-7 23 -5 36 5 25 -10 30 -19 7z"/>
<path d="M2470 3104 c0 -46 73 -89 141 -82 33 3 32 4 -28 26 -34 12 -71 34
-82 47 -22 29 -31 31 -31 9z"/>
<path d="M2210 2751 c0 -7 10 -16 23 -21 12 -5 34 -19 48 -31 41 -33 58 -19
23 18 -29 32 -94 55 -94 34z"/>
<path d="M2197 2698 c-6 -17 10 -58 22 -58 5 0 11 16 13 35 3 28 1 35 -13 35
-9 0 -19 -6 -22 -12z"/>
<path d="M2040 404 c0 -45 -25 -81 -63 -88 -12 -3 -71 -7 -132 -10 -79 -3
-124 -10 -161 -24 -124 -50 -270 -61 -352 -26 -28 11 -34 11 -38 -1 -3 -7 -19
-17 -35 -20 -16 -4 -29 -10 -29 -15 0 -18 148 -33 370 -37 129 -2 321 -9 425
-14 131 -7 275 -7 465 1 320 13 584 28 654 37 l50 6 -27 21 c-29 24 -47 64
-47 106 0 37 -2 37 -195 44 -82 3 -224 15 -315 27 -91 12 -256 24 -368 28
l-202 6 0 -41z"/>
</g>
</svg>
