<?xml version="1.0" standalone="no"?>
<!DOCTYPE svg PUBLIC "-//W3C//DTD SVG 20010904//EN"
 "http://www.w3.org/TR/2001/REC-SVG-20010904/DTD/svg10.dtd">
<svg version="1.0" xmlns="http://www.w3.org/2000/svg"
 width="1699.000000pt" height="1699.000000pt" viewBox="0 0 1699.000000 1699.000000"
 preserveAspectRatio="xMidYMid meet">
<metadata>
Created by potrace 1.14, written by Peter Selinger 2001-2017
</metadata>
<g transform="translate(0.000000,1699.000000) scale(0.100000,-0.100000)"
fill="#000000" stroke="none">
<path d="M9055 16720 c-725 -46 -1481 -247 -2285 -611 -422 -190 -1000 -492
-1352 -705 -1485 -901 -2416 -2010 -2916 -3474 -223 -655 -352 -1340 -414
-2205 -18 -250 -18 -1286 0 -1450 71 -644 217 -1191 461 -1723 261 -568 652
-1096 1089 -1467 l82 -70 1 -720 c1 -396 4 -913 9 -1150 6 -401 8 -435 29
-510 106 -382 367 -630 751 -716 77 -17 132 -19 585 -19 l500 0 13 -64 c30
-161 125 -378 234 -538 427 -624 1303 -972 2535 -1006 301 -9 715 1 983 22
1690 136 2907 715 3551 1689 273 411 433 897 456 1376 5 113 3 137 -20 231
-61 252 -160 437 -307 572 l-70 66 0 2000 0 1999 123 43 c401 141 809 324
1122 505 150 86 426 273 550 372 147 117 363 334 457 460 261 348 375 710 339
1074 -15 148 -64 347 -119 481 -33 80 -52 111 -108 173 -158 174 -355 326
-521 401 -135 62 -233 85 -378 91 -269 11 -481 -58 -905 -294 -80 -44 -210
-116 -290 -158 -80 -43 -181 -99 -226 -126 l-80 -48 -37 17 -36 17 -1 143 c0
129 2 142 18 142 21 1 56 28 71 57 8 15 11 295 11 986 l0 964 -24 95 c-45 179
-139 352 -245 451 -54 50 -159 122 -232 157 l-45 22 30 86 c38 114 47 290 22
425 -90 475 -499 962 -1206 1434 -151 100 -248 154 -390 216 -323 140 -728
240 -1130 277 -165 15 -521 20 -685 10z m2586 -3446 c64 -47 123 -114 165
-190 l34 -61 0 -697 0 -697 25 -24 c19 -20 34 -25 75 -25 l50 0 0 -55 0 -55
-50 0 c-41 0 -56 -5 -75 -25 l-25 -24 0 -972 0 -971 -36 -68 c-66 -127 -197
-234 -333 -274 -49 -14 -351 -16 -3125 -16 -2637 0 -3080 2 -3132 15 -86 20
-113 35 -122 64 -4 14 -7 854 -7 1866 l0 1840 24 65 c41 112 103 193 194 253
50 33 146 72 197 80 14 2 1390 5 3059 6 l3033 1 49 -36z"/>
<path d="M7010 12237 c-49 -16 -133 -102 -148 -153 -31 -104 -9 -198 63 -269
55 -55 102 -75 180 -75 78 0 125 20 180 75 55 55 75 102 75 180 0 78 -20 125
-75 180 -31 32 -65 55 -91 63 -50 14 -136 14 -184 -1z"/>
<path d="M9450 12237 c-49 -16 -133 -102 -148 -153 -31 -104 -9 -198 63 -269
55 -55 102 -75 180 -75 78 0 125 20 180 75 55 55 75 102 75 180 0 78 -20 125
-75 180 -31 32 -65 55 -91 63 -50 14 -136 14 -184 -1z"/>
<path d="M7513 11486 c-25 -22 -28 -30 -27 -84 2 -123 60 -293 140 -413 89
-134 238 -260 373 -315 136 -55 207 -69 351 -68 117 1 147 5 225 28 185 56
333 154 445 295 104 130 179 322 183 464 2 64 0 70 -26 93 l-28 24 -804 0
-804 0 -28 -24z m1527 -149 c0 -7 -7 -38 -16 -68 -53 -181 -195 -350 -364
-433 -109 -53 -201 -76 -315 -76 -114 0 -206 23 -315 76 -169 83 -311 252
-364 433 -9 30 -16 61 -16 68 0 11 126 13 695 13 569 0 695 -2 695 -13z"/>
<path d="M15244 8126 c-140 -44 -269 -153 -378 -321 -99 -151 -173 -240 -312
-375 -184 -179 -380 -318 -621 -441 -127 -65 -341 -150 -423 -169 -140 -32
-249 -110 -302 -218 -32 -64 -33 -71 -33 -187 0 -197 50 -315 201 -474 182
-192 451 -336 747 -400 502 -109 999 22 1416 372 378 317 590 660 632 1022 39
335 -108 705 -399 1002 -83 85 -184 153 -270 182 -71 24 -193 27 -258 7z"/>
</g>
</svg>
